<mxfile host="app.diagrams.net" modified="2023-07-12T16:13:31.571Z" agent="Mozilla/5.0 (X11; Ubuntu; Linux x86_64; rv:109.0) Gecko/20100101 Firefox/114.0" etag="sdIVyJ6mKwpb-i_VYSxt" version="21.3.8" type="device">
  <diagram name="Page-1" id="0Q0HcaeAHRDhlYBFykp0">
    <mxGraphModel dx="1430" dy="782" grid="1" gridSize="10" guides="1" tooltips="1" connect="1" arrows="1" fold="1" page="1" pageScale="1" pageWidth="850" pageHeight="1100" math="0" shadow="0">
      <root>
        <mxCell id="0" />
        <mxCell id="1" parent="0" />
        <mxCell id="ZXtl8AFAcqZz_9mBUtFN-1" value="" style="rounded=0;whiteSpace=wrap;html=1;" vertex="1" parent="1">
          <mxGeometry x="280" y="300" width="80" height="80" as="geometry" />
        </mxCell>
        <mxCell id="ZXtl8AFAcqZz_9mBUtFN-2" value="" style="endArrow=classic;html=1;rounded=0;" edge="1" parent="1">
          <mxGeometry width="50" height="50" relative="1" as="geometry">
            <mxPoint x="240" y="320" as="sourcePoint" />
            <mxPoint x="280" y="320" as="targetPoint" />
          </mxGeometry>
        </mxCell>
        <mxCell id="ZXtl8AFAcqZz_9mBUtFN-4" value="" style="endArrow=classic;html=1;rounded=0;exitX=1;exitY=0.75;exitDx=0;exitDy=0;" edge="1" parent="1" source="ZXtl8AFAcqZz_9mBUtFN-1">
          <mxGeometry width="50" height="50" relative="1" as="geometry">
            <mxPoint x="440" y="360" as="sourcePoint" />
            <mxPoint x="400" y="360" as="targetPoint" />
          </mxGeometry>
        </mxCell>
        <mxCell id="ZXtl8AFAcqZz_9mBUtFN-5" value="" style="endArrow=classic;html=1;rounded=0;" edge="1" parent="1">
          <mxGeometry width="50" height="50" relative="1" as="geometry">
            <mxPoint x="360" y="319.5" as="sourcePoint" />
            <mxPoint x="400" y="319.5" as="targetPoint" />
          </mxGeometry>
        </mxCell>
        <mxCell id="ZXtl8AFAcqZz_9mBUtFN-9" value="&lt;font style=&quot;font-size: 22px;&quot;&gt;&lt;i&gt;O&lt;/i&gt;&lt;sub&gt;0&lt;/sub&gt;,&lt;i&gt;A&lt;/i&gt;&lt;sub&gt;1&lt;/sub&gt;,...,&lt;i&gt;O&lt;/i&gt;&lt;sub&gt;t-1&lt;/sub&gt;&lt;/font&gt;" style="text;html=1;strokeColor=none;fillColor=none;align=center;verticalAlign=middle;whiteSpace=wrap;rounded=0;" vertex="1" parent="1">
          <mxGeometry x="110" y="300" width="120" height="40" as="geometry" />
        </mxCell>
        <mxCell id="ZXtl8AFAcqZz_9mBUtFN-10" value="" style="endArrow=classic;html=1;rounded=0;" edge="1" parent="1">
          <mxGeometry width="50" height="50" relative="1" as="geometry">
            <mxPoint x="240" y="360" as="sourcePoint" />
            <mxPoint x="280" y="360" as="targetPoint" />
          </mxGeometry>
        </mxCell>
        <mxCell id="ZXtl8AFAcqZz_9mBUtFN-11" value="&lt;font style=&quot;font-size: 22px;&quot;&gt;&lt;i&gt;A&lt;/i&gt;&lt;sub&gt;t-1&lt;/sub&gt;&lt;/font&gt;" style="text;html=1;strokeColor=none;fillColor=none;align=center;verticalAlign=middle;whiteSpace=wrap;rounded=0;" vertex="1" parent="1">
          <mxGeometry x="190" y="340" width="50" height="40" as="geometry" />
        </mxCell>
        <mxCell id="ZXtl8AFAcqZz_9mBUtFN-12" value="&lt;font style=&quot;font-size: 22px;&quot;&gt;&lt;i&gt;O&lt;/i&gt;&lt;sub&gt;t&lt;/sub&gt;&lt;/font&gt;" style="text;html=1;strokeColor=none;fillColor=none;align=center;verticalAlign=middle;whiteSpace=wrap;rounded=0;" vertex="1" parent="1">
          <mxGeometry x="400" y="300" width="50" height="40" as="geometry" />
        </mxCell>
        <mxCell id="ZXtl8AFAcqZz_9mBUtFN-13" value="&lt;font style=&quot;font-size: 22px;&quot;&gt;&lt;i&gt;R&lt;/i&gt;&lt;sub&gt;t&lt;/sub&gt;&lt;/font&gt;" style="text;html=1;strokeColor=none;fillColor=none;align=center;verticalAlign=middle;whiteSpace=wrap;rounded=0;" vertex="1" parent="1">
          <mxGeometry x="400" y="340" width="50" height="40" as="geometry" />
        </mxCell>
      </root>
    </mxGraphModel>
  </diagram>
</mxfile>
